<svg width="36" height="36" viewBox="0 0 36 36" fill="none" xmlns="http://www.w3.org/2000/svg">
<g id="clarity:battery-solid" clip-path="url(#clip0_5711_2487)">
<path id="Vector" d="M22 4V2.62C22.0027 2.5412 21.9898 2.46264 21.9621 2.38882C21.9344 2.315 21.8924 2.24736 21.8385 2.18978C21.7846 2.1322 21.72 2.0858 21.6481 2.05324C21.5763 2.02067 21.4988 2.00258 21.42 2H14.58C14.5012 2.00258 14.4237 2.02067 14.3519 2.05324C14.28 2.0858 14.2154 2.1322 14.1615 2.18978C14.1076 2.24736 14.0656 2.315 14.0379 2.38882C14.0102 2.46264 13.9973 2.5412 14 2.62V4H10C9.7302 4.02232 9.47837 4.14424 9.29352 4.34203C9.10868 4.53982 9.00405 4.79931 9 5.07V33.07C9.01775 33.3229 9.13089 33.5596 9.31653 33.7323C9.50218 33.9049 9.74648 34.0006 10 34H26C26.2551 34.0005 26.5008 33.9034 26.6867 33.7286C26.8726 33.5539 26.9847 33.3147 27 33.06V5.06C26.9935 4.79105 26.8878 4.53401 26.7032 4.33832C26.5186 4.14264 26.2681 4.02213 26 4H22ZM20.26 25.44C20.4019 25.7251 20.4247 26.0549 20.3234 26.3568C20.2222 26.6588 20.0051 26.9081 19.72 27.05C19.4349 27.1919 19.1051 27.2147 18.8032 27.1134C18.5012 27.0122 18.2519 26.7951 18.11 26.51L12.65 15.56L18.65 16.56L16.36 12.56C16.2812 12.4234 16.2301 12.2727 16.2096 12.1163C16.189 11.96 16.1995 11.8012 16.2403 11.6489C16.2812 11.4966 16.3517 11.3538 16.4477 11.2288C16.5437 11.1037 16.6634 10.9988 16.8 10.92C16.9366 10.8412 17.0873 10.7901 17.2437 10.7696C17.4 10.749 17.5588 10.7595 17.7111 10.8003C17.8634 10.8412 18.0062 10.9117 18.1312 11.0077C18.2563 11.1037 18.3612 11.2234 18.44 11.36L23.27 19.73L16.9 18.7L20.26 25.44Z" fill="#0DB814"/>
</g>
<defs>
<clipPath id="clip0_5711_2487">
<rect width="36" height="36" fill="white"/>
</clipPath>
</defs>
</svg>
