<svg width="40" height="40" viewBox="0 0 40 40" fill="none" xmlns="http://www.w3.org/2000/svg">
<g id="clarity:shopping-cart-solid-badged" clip-path="url(#clip0_5991_526)">
<path id="Vector" d="M15.0004 35.5556C16.5346 35.5556 17.7782 34.3119 17.7782 32.7778C17.7782 31.2437 16.5346 30 15.0004 30C13.4663 30 12.2227 31.2437 12.2227 32.7778C12.2227 34.3119 13.4663 35.5556 15.0004 35.5556Z" fill="white"/>
<path id="Vector_2" d="M29.4448 35.5556C30.9789 35.5556 32.2225 34.3119 32.2225 32.7778C32.2225 31.2437 30.9789 30 29.4448 30C27.9106 30 26.667 31.2437 26.667 32.7778C26.667 34.3119 27.9106 35.5556 29.4448 35.5556Z" fill="white"/>
<path id="Vector_3" d="M33.3335 14.9999C31.1234 14.9999 29.0038 14.1219 27.441 12.5591C25.8782 10.9963 25.0002 8.87672 25.0002 6.66659H10.2335L9.73354 5.0777C9.67861 4.9071 9.58324 4.75231 9.45554 4.62655C9.32785 4.50079 9.17163 4.40779 9.00021 4.35548L4.44465 2.95548C4.30457 2.91243 4.15739 2.8974 4.0115 2.91124C3.86562 2.92507 3.72388 2.96751 3.5944 3.03612C3.33289 3.17469 3.13714 3.41147 3.0502 3.69436C2.96327 3.97726 2.99228 4.28311 3.13085 4.54462C3.26942 4.80613 3.5062 5.00188 3.78909 5.08881L7.77798 6.31103L12.8669 22.3888L11.0558 23.8777L10.9113 24.0221C10.4634 24.5408 10.2097 25.1989 10.1935 25.884C10.1772 26.569 10.3996 27.2385 10.8224 27.7777C11.1253 28.146 11.5101 28.4383 11.9461 28.6312C12.3822 28.8242 12.8573 28.9124 13.3335 28.8888H31.878C32.1727 28.8888 32.4553 28.7717 32.6637 28.5634C32.872 28.355 32.9891 28.0724 32.9891 27.7777C32.9891 27.483 32.872 27.2004 32.6637 26.992C32.4553 26.7836 32.1727 26.6666 31.878 26.6666H13.1558C13.0278 26.6622 12.9032 26.6249 12.7938 26.5583C12.6845 26.4917 12.5942 26.398 12.5316 26.2863C12.4691 26.1746 12.4364 26.0487 12.4367 25.9206C12.4371 25.7926 12.4704 25.6669 12.5335 25.5555L15.2113 23.3333H32.3558C32.6096 23.3406 32.8583 23.2609 33.0604 23.1072C33.2626 22.9536 33.406 22.7353 33.4669 22.4888L35.3669 14.711C34.7036 14.8909 34.0206 14.9879 33.3335 14.9999Z" fill="white"/>
</g>
<defs>
<clipPath id="clip0_5991_526">
<rect width="40" height="40" fill="white"/>
</clipPath>
</defs>
</svg>
