<svg width="51" height="51" viewBox="0 0 51 51" fill="none" xmlns="http://www.w3.org/2000/svg">
<g id="game-icons:ring" clip-path="url(#clip0_5711_2461)">
<path id="Vector" d="M18.0947 19.9454C15.1678 23.7846 13.3083 28.4181 13.39 32.5269C14.2024 33.1255 15.4594 33.9438 16.4846 34.0611C17.8271 25.3028 23.1899 18.2684 31.2799 14.6543C30.8953 13.6968 29.7733 12.7013 28.9809 12.0765C24.9972 13.0859 21.0216 16.1062 18.0947 19.9454ZM30.8652 12.015C31.018 12.1601 31.1712 12.3118 31.3199 12.4718C31.948 13.1475 32.5345 13.9471 32.6501 14.8997C33.0768 16.5014 32.6139 18.48 31.7028 20.6193C30.7795 22.7872 29.3591 25.1173 27.7122 27.2776C26.0654 29.4377 24.1946 31.4245 22.3487 32.889C20.5354 34.3277 18.758 35.2947 17.1069 35.316C15.926 35.4752 14.8052 34.9966 13.897 34.44C14.8358 36.3696 16.8803 37.7314 19.4417 38.6077C22.4484 39.6363 27.6077 38.3162 32.9683 31.2847C38.3289 24.2533 38.2356 18.9285 36.4474 16.3015L36.435 16.2833L36.4241 16.2644C35.0164 13.8531 33.0645 12.323 30.8652 12.015Z" fill="black"/>
</g>
<defs>
<clipPath id="clip0_5711_2461">
<rect width="36" height="36" fill="white" transform="translate(0.339844 28.9688) rotate(-52.679)"/>
</clipPath>
</defs>
</svg>
