<svg width="24" height="24" viewBox="0 0 24 24" fill="none" xmlns="http://www.w3.org/2000/svg">
<g id="Health" clip-path="url(#clip0_5991_614)">
<g id="Group">
<path id="Vector" d="M2.76091 10.0016L6.00391 6.75878L8.75491 9.50966L13.2239 3.9229L17.8359 10.8406L19.0959 10.0006H21.7159C21.8889 9.33267 22.0039 8.6637 22.0039 8.00073C22.0039 4.46787 19.5369 2.00098 16.0039 2.00098C14.4099 2.00098 12.9329 2.83794 12.0039 4.08089C11.0749 2.83794 9.59791 2.00098 8.00391 2.00098C4.47091 2.00098 2.00391 4.46787 2.00391 8.00073C2.00391 8.6637 2.11891 9.33267 2.29191 10.0006L2.76091 10.0016ZM9.25191 18.4933L6.00291 15.2444L5.42391 15.8234C8.01491 19.1323 11.1659 21.6172 11.3889 21.7902C11.564 21.9277 11.7802 22.0025 12.0029 22.0025C12.2256 22.0025 12.4418 21.9277 12.6169 21.7902C13.7794 20.8605 14.8869 19.8642 15.9339 18.8063L12.7829 14.0795L9.25191 18.4933Z" fill="white"/>
<path id="Vector_2" d="M19.7 12.0014L17.28 13.6143L13.076 7.30957L8.91895 12.5044L6.00195 9.58748L3.58795 12.0014H1.00195V14.0013H4.41695L6.00195 12.4164L9.08495 15.4982L12.929 10.6944L16.725 16.3882L20.305 14.0013H23.002V12.0014H19.7Z" fill="white"/>
</g>
</g>
<defs>
<clipPath id="clip0_5991_614">
<rect width="24" height="24" fill="white"/>
</clipPath>
</defs>
</svg>
