<svg width="36" height="36" viewBox="0 0 36 36" fill="none" xmlns="http://www.w3.org/2000/svg">
<g id="mingcute:notification-fill" clip-path="url(#clip0_5711_2477)">
<g id="Group">
<path id="Vector" d="M22.5003 28.5C22.5005 29.2569 22.2147 29.9858 21.7 30.5408C21.1854 31.0958 20.48 31.4357 19.7253 31.4925L19.5003 31.5H16.5003C15.7434 31.5002 15.0144 31.2144 14.4594 30.6998C13.9045 30.1851 13.5645 29.4797 13.5078 28.725L13.5003 28.5H22.5003ZM18.0003 3C20.7227 2.99996 23.3388 4.05734 25.2966 5.94911C27.2544 7.84088 28.4009 10.4191 28.4943 13.14L28.5003 13.5V19.146L31.2333 24.612C31.3525 24.8505 31.4122 25.1144 31.4072 25.381C31.4022 25.6476 31.3327 25.909 31.2045 26.1429C31.0764 26.3767 30.8935 26.576 30.6715 26.7238C30.4495 26.8715 30.195 26.9632 29.9298 26.991L29.7573 27H6.24326C5.97651 27.0001 5.71371 26.9355 5.47739 26.8117C5.24107 26.688 5.03828 26.5088 4.88639 26.2895C4.73449 26.0702 4.63803 25.8174 4.60527 25.5527C4.5725 25.2879 4.60441 25.0192 4.69826 24.7695L4.76726 24.612L7.50026 19.146V13.5C7.50026 10.7152 8.60651 8.04451 10.5756 6.07538C12.5448 4.10625 15.2155 3 18.0003 3Z" fill="#2066CF"/>
</g>
</g>
<defs>
<clipPath id="clip0_5711_2477">
<rect width="36" height="36" fill="white"/>
</clipPath>
</defs>
</svg>
