<svg width="36" height="36" viewBox="0 0 36 36" fill="none" xmlns="http://www.w3.org/2000/svg">
<g id="mdi:wireless">
<path id="Vector" d="M7.39501 7.39453C5.99997 8.78556 4.89355 10.4385 4.13931 12.2585C3.38507 14.0784 2.99789 16.0295 3.00001 17.9995C3.00001 22.1395 4.68001 25.8895 7.39501 28.6045L9.51001 26.4895C8.39185 25.3774 7.50577 24.0541 6.90322 22.5967C6.30067 21.1392 5.99366 19.5766 6.00001 17.9995C6.00001 14.6845 7.33501 11.6695 9.51001 9.50953L7.39501 7.39453ZM28.605 7.39453L26.49 9.50953C27.607 10.6226 28.4924 11.9459 29.0948 13.4032C29.6973 14.8604 30.0049 16.4227 30 17.9995C30 21.3295 28.665 24.3295 26.49 26.4895L28.605 28.6045C30 27.2135 31.1065 25.5605 31.8607 23.7406C32.6149 21.9206 33.0021 19.9696 33 17.9995C33 13.8595 31.32 10.1095 28.605 7.39453ZM11.64 11.6395C10.8027 12.4735 10.1384 13.4646 9.68539 14.5561C9.23233 15.6476 8.99941 16.8178 9.00001 17.9995C9.00001 20.4745 10.005 22.7245 11.64 24.3595L13.755 22.2445C13.1973 21.6874 12.7552 21.0256 12.454 20.2971C12.1529 19.5686 11.9986 18.7878 12 17.9995C12 16.3345 12.675 14.8345 13.755 13.7545L11.64 11.6395ZM24.36 11.6395L22.245 13.7545C22.8027 14.3117 23.2448 14.9735 23.546 15.702C23.8471 16.4304 24.0014 17.2112 24 17.9995C24 19.6645 23.325 21.1645 22.245 22.2445L24.36 24.3595C25.1973 23.5256 25.8616 22.5344 26.3146 21.443C26.7677 20.3515 27.0006 19.1813 27 17.9995C27 15.5245 25.995 13.2745 24.36 11.6395ZM18 14.9995C17.2044 14.9995 16.4413 15.3156 15.8787 15.8782C15.3161 16.4408 15 17.2039 15 17.9995C15 18.7952 15.3161 19.5582 15.8787 20.1209C16.4413 20.6835 17.2044 20.9995 18 20.9995C18.7957 20.9995 19.5587 20.6835 20.1213 20.1209C20.6839 19.5582 21 18.7952 21 17.9995C21 17.2039 20.6839 16.4408 20.1213 15.8782C19.5587 15.3156 18.7957 14.9995 18 14.9995Z" fill="black"/>
</g>
</svg>
